<svg xmlns="http://www.w3.org/2000/svg" viewBox="0 0 177.2 38.41"><title>Infinix Mobile logo</title><path d="M539.21,503.71H524.45s-2.68,0-3.65,1.95v-1.95h-6.6v27.47h6.6V513.5a3.92,3.92,0,0,1,3.92-3.92h12.49a3.92,3.92,0,0,1,3.92,3.92v17.68h6.46V511.53s-.46-7.81-8.38-7.81" transform="translate(-423.4 -492.79)"/><rect y="3" width="6.6" height="35.39"/><rect x="77.48" y="10.89" width="6.62" height="27.52"/><rect x="130.89" y="10.92" width="6.6" height="27.47"/><path d="M461.68,503.71H446.92s-2.68,0-3.65,1.95v-1.95h-6.6v27.47h6.6V513.5a3.92,3.92,0,0,1,3.92-3.92h12.52a3.92,3.92,0,0,1,3.92,3.92v17.68h6.46V511.53s-.46-7.81-8.41-7.81" transform="translate(-423.4 -492.79)"/><rect x="77.48" width="6.62" height="5.7"/><rect x="130.89" width="6.6" height="5.7"/><polygon points="177.2 10.92 168.95 10.92 159.47 20.52 149.98 10.92 141.76 10.92 155.33 24.68 141.76 38.39 150.09 38.39 159.47 28.87 168.87 38.39 177.2 38.39 163.6 24.68 177.2 10.92"/><path d="M486.2,499.17a2.12,2.12,0,0,1,1.59-.68h7.38v-5.7h-5.84c-.08,0-.95,0-2.11,0h-.11a8.56,8.56,0,0,0-6.19,2.43,6.89,6.89,0,0,0-1.87,4.54v3.92h-8.57s2.35.87,4,5.87h4.6v21.6h6.51v-21.6h9.57v-5.87h-9.57v-2.41a2.94,2.94,0,0,1,0-.49,1.17,1.17,0,0,0,0-.14,2.2,2.2,0,0,1,.41-1.24,2.36,2.36,0,0,1,.22-.27" transform="translate(-423.4 -492.79)"/></svg>